<?xml version="1.0" encoding="UTF-8" standalone="no"?>
<!-- Generated by IcoMoon.io -->

<svg
   version="1.1"
   width="16"
   height="16"
   viewBox="0 0 16 16"
   id="svg1"
   sodipodi:docname="icon.svg"
   inkscape:version="1.4 (e7c3feb100, 2024-10-09)"
   inkscape:export-filename="../../public/avatar.png"
   inkscape:export-xdpi="768"
   inkscape:export-ydpi="768"
   xmlns:inkscape="http://www.inkscape.org/namespaces/inkscape"
   xmlns:sodipodi="http://sodipodi.sourceforge.net/DTD/sodipodi-0.dtd"
   xmlns="http://www.w3.org/2000/svg"
   xmlns:svg="http://www.w3.org/2000/svg">
  <defs
     id="defs1" />
  <sodipodi:namedview
     id="namedview1"
     pagecolor="#ffffff"
     bordercolor="#000000"
     borderopacity="0.25"
     inkscape:showpageshadow="2"
     inkscape:pageopacity="0.0"
     inkscape:pagecheckerboard="0"
     inkscape:deskcolor="#d1d1d1"
     inkscape:zoom="38.802485"
     inkscape:cx="8.221123"
     inkscape:cy="10.978678"
     inkscape:window-width="1920"
     inkscape:window-height="1131"
     inkscape:window-x="0"
     inkscape:window-y="0"
     inkscape:window-maximized="1"
     inkscape:current-layer="svg1" />
  <rect
     style="fill:#ff0000;fill-opacity:1;stroke:none;stroke-width:1.5;stroke-linecap:square;stroke-dasharray:none;stroke-opacity:1;paint-order:stroke fill markers"
     id="rect6"
     width="16"
     height="16"
     x="0"
     y="0"
     rx="8"
     ry="8" />
  <path
     fill="#000000"
     d="M 13.083164,9.1834386 C 12.43632,8.0624485 12.824889,6.6261312 13.952047,5.9731197 L 12.740082,3.8737686 C 12.393917,4.0765335 11.990699,4.19295 11.561269,4.19295 c -1.29523,0 -2.3452908,-1.0569997 -2.3452908,-2.36071 h -2.424701 c 0.0031,0.4024464 -0.09714,0.8102895 -0.313013,1.183439 -0.646844,1.1209901 -2.086245,1.5018494 -3.214945,0.8526927 l -1.211965,2.0993512 c 0.34925,0.1981393 0.65147,0.4887949 0.8658,0.8611734 0.646072,1.1194484 0.259045,2.5526813 -0.863487,3.2072357 l 1.211965,2.099351 c 0.345394,-0.201223 0.745528,-0.316098 1.173416,-0.316098 1.291375,0 2.338352,1.050062 2.345291,2.348375 h 2.424701 c -7.71e-4,-0.398591 0.09946,-0.801809 0.313014,-1.171103 0.6460718,-1.119449 2.0816178,-1.501079 3.2095478,-0.855777 l 1.211964,-2.099351 C 13.59663,9.8433887 13.296723,9.5535046 13.083164,9.1834386 Z M 8.0024712,10.497943 c -1.379265,0 -2.497942,-1.1179065 -2.497942,-2.4979433 0,-1.3800363 1.117906,-2.4979427 2.497942,-2.4979427 1.379266,0 2.4979418,1.1179064 2.4979418,2.4979427 0,1.3800369 -1.1179048,2.4979433 -2.4979418,2.4979433 z"
     id="path2"
     style="fill:#f9f9f9;fill-opacity:1;stroke:#ff0000;stroke-width:1;stroke-linecap:square;stroke-dasharray:none;stroke-opacity:1" />
</svg>
